<svg xmlns="http://www.w3.org/2000/svg" viewBox="0 0 1140.64 980.99"><defs><style>.cls-1{fill:#fff;}</style></defs><title>Camera</title><g id="レイヤー_6" data-name="レイヤー 6"><path class="cls-1" d="M279.95,799.75H244.21a27,27,0,0,1-27-27V388a27,27,0,0,1,27-26.93H412.87a22,22,0,0,0,0-44H244.21a71,71,0,0,0-71,71V772.76a71.09,71.09,0,0,0,71,71h35.73a22,22,0,1,0,0-44Zm0,0"/><path class="cls-1" d="M838,317H802.25a22,22,0,1,0,0,44H838a27,27,0,0,1,27,27V772.76a27,27,0,0,1-27,27H680.39a22,22,0,1,0,0,44H838a71.09,71.09,0,0,0,71-71V388a71.09,71.09,0,0,0-71-71Zm0,0"/><path class="cls-1" d="M268,302a21.92,21.92,0,0,0,22-22v-4.71a4.58,4.58,0,0,1,4.63-4.56H330a4.6,4.6,0,0,1,4.65,4.56v4.71a22,22,0,0,0,44,0v-4.71a48.68,48.68,0,0,0-48.6-48.6h-35.5a48.69,48.69,0,0,0-48.67,48.6v4.71a22.06,22.06,0,0,0,22,22Zm0,0"/><path class="cls-1" d="M786.1,580.39c0-116.33-94.65-211-211.06-211s-211,94.65-211,211,94.65,211.07,211,211.07S786.1,696.8,786.1,580.39ZM575,747.42c-92,0-167-74.91-167-167s75-166.94,167-166.94c92.12,0,167,74.91,167,166.94s-74.91,167-167,167Zm0,0"/><path class="cls-1" d="M575,441c-76.87,0-139.43,62.59-139.43,139.43S498.18,719.84,575,719.84s139.51-62.51,139.51-139.45S652,441,575,441Zm0,234.92c-52.56,0-95.32-42.85-95.32-95.49A95.39,95.39,0,1,1,575,675.88Zm0,0"/></g></svg>