<svg xmlns="http://www.w3.org/2000/svg" viewBox="0 0 1207.09 972.49"><defs><style>.cls-1{fill:#f1957d;}.cls-2{fill:#fff;}</style></defs><title>Push</title><g id="レイヤー_5" data-name="レイヤー 5"><path class="cls-1" d="M369.65,286.71A11.75,11.75,0,0,1,359,280.17l-85.7-173.8a8.67,8.67,0,0,1,.11-8.32,8.93,8.93,0,0,1,7.41-4.29l47-2.71.64,0c5.36,0,10.41,3.86,11.48,8.78l38.65,176.51a8.25,8.25,0,0,1-1.5,7.09,9.5,9.5,0,0,1-7.52,3.3Z"/><path class="cls-2" d="M328.53,94.54c3.71,0,7.33,2.67,8.06,6l38.65,176.51c.87,4-2.14,6.14-5.59,6.14a8.32,8.32,0,0,1-7.49-4.59l-85.7-173.8c-1.82-3.69.38-7.32,4.58-7.56l47-2.71h.44m0-7-.84,0-47,2.71a12.53,12.53,0,0,0-10.23,6,12.11,12.11,0,0,0-.22,11.63l85.7,173.8a15.23,15.23,0,0,0,13.77,8.5,13,13,0,0,0,10.24-4.6,11.69,11.69,0,0,0,2.19-10L343.43,99.07c-1.44-6.58-7.85-11.54-14.9-11.54Z"/><path class="cls-1" d="M340.28,296.6a12.77,12.77,0,0,1-5.6-1.32l-127.9-62a9.75,9.75,0,0,1-5.65-7.21,8.11,8.11,0,0,1,2.76-7.25L226,199.09a11.13,11.13,0,0,1,7.46-2.68,12.4,12.4,0,0,1,7.57,2.51l105.77,81.72c3.27,2.53,4.52,6.09,3.35,9.52-1.29,3.79-5.36,6.43-9.89,6.43Z"/><path class="cls-2" d="M233.48,199.92a9,9,0,0,1,5.43,1.78l105.77,81.72c5.16,4,1.29,9.68-4.39,9.68a9.33,9.33,0,0,1-4.07-1l-127.9-62c-4-1.93-5-6.11-2.09-8.7l22.13-19.77a7.7,7.7,0,0,1,5.13-1.79m0-7a14.62,14.62,0,0,0-9.79,3.57l-22.13,19.77a11.56,11.56,0,0,0-3.89,10.34,13.23,13.23,0,0,0,7.59,9.88l127.9,62a16.24,16.24,0,0,0,7.13,1.67c6.1,0,11.4-3.54,13.2-8.8,1.65-4.84-.08-10-4.53-13.42L243.18,196.16a15.92,15.92,0,0,0-9.71-3.24Z"/><path class="cls-1" d="M404.56,281.64c-5.51,0-9.93-3-11-7.57L372.1,182.45a7.83,7.83,0,0,1,1.56-6.77,11.17,11.17,0,0,1,8.79-3.9H383l28.91,1.1a11.93,11.93,0,0,1,8.5,3.79,8.29,8.29,0,0,1,2.17,6.19L415.1,273.4c-.4,4.85-4.73,8.24-10.54,8.24Z"/><path class="cls-2" d="M382.44,175.28h.38l28.91,1.1c4.24.16,7.58,3,7.32,6.2l-7.44,90.52c-.27,3.34-3.62,5-7.06,5s-6.82-1.61-7.58-4.86l-21.47-91.63c-.79-3.39,2.51-6.36,6.94-6.36m0-7a14.69,14.69,0,0,0-11.53,5.22,11.42,11.42,0,0,0-2.22,9.74l21.47,91.63c1.44,6.14,7.22,10.27,14.39,10.27,7.59,0,13.49-4.82,14-11.45L426,183.17a11.76,11.76,0,0,0-3-8.8,15.44,15.44,0,0,0-11-5l-28.91-1.1Z"/></g><g id="レイヤー_6" data-name="レイヤー 6"><path class="cls-2" d="M554.71,326,682.26,866.15c2.86,12.11-6.31,23.95-20.45,26.4L271.26,960.2c-14.13,2.45-28-5.4-30.82-17.51L112.9,402.53c-2.86-12.1,6.32-23.94,20.45-26.39L523.9,308.49C538,306,551.86,313.9,554.71,326ZM168.23,415,285.78,912.81l341.16-59.1L509.38,355.87Z"/><path class="cls-2" d="M130.34,768.28c-13.48-8.05-22-21-24-37.7-2-16.52,2.78-31.28,13.73-42.68.6-.61,1.22-1.23,1.84-1.84C109,677.4,98.88,664.28,97.17,645c-1.8-13.93,2.24-26.51,11.64-36.38,16.21-17,42.85-20.37,51.14-21H160l14.82-1.32,8.36,35.42-19.74,1.76c-6.31.5-17.42,3-22.11,7.94-1.38,1.46-3.15,4-2.36,10.28,2,22.06,30.24,23.4,35.74,23.44,11.22-.06,20.43,7.47,21,17.07s-7.84,17.9-19,18.85c-4.51.38-17.68,2.89-24.28,9.81-3.74,3.92-5.15,9.18-4.33,16.11.74,6.23,2,16.68,27.07,14.71,2.18-.17,4-.43,4.17-.42,3.26-.69,5.23-.94,5.23-.94,10.86-1.55,21.43,4.7,23.77,14s-4.27,18.61-15,21.12c0,0-1.94.47-4,.76-10.51,2.2-27.85,7.9-26,21.33,2.18,16,9.37,21,28.41,19.46,9.32-.73,18.09,3.9,21.5,11.37s.62,16-6.83,20.83c-5.77,3.79-9.94,13.23-6.88,20.19,3.78,8.63,20.12,13,43.69,11.67l1.17-.09,8.38,35.49-6,.47-.53,0c-62.31,3.55-80.95-23.23-86.09-34.91a46.2,46.2,0,0,1-1.21-33c-21-7.16-34.11-23.42-37.4-47.36A43.9,43.9,0,0,1,130.34,768.28Z"/><path class="cls-2" d="M662.86,876.15l-8-33.82c16.89-1.81,34.19-2.24,51.94,2.14l-5.5-1.52L766.5,670.3,757,667.68c-7.27-2-12.7-7.24-14.16-13.67-5.87-25.72-34.19-66.59-59.2-102.62-29.52-42.56-47.68-69.62-49.09-88.65C632.88,440,642,411.56,649.8,392a82.67,82.67,0,0,0-33.31,9.39c-49.44,27.72-35.34,116.37-25.73,148.18a15.79,15.79,0,0,1-1.9,13.14l-35.19-149A97.34,97.34,0,0,1,594,371c43.44-22.91,83.42-13.68,92-11.3l.07,0a20.07,20.07,0,0,1,12.25,9.75,15.62,15.62,0,0,1,.06,14.31c-6.66,13.32-23.6,53-21.84,76.69.83,11.33,24.37,45.26,43.27,72.52,24.38,35.16,49.49,71.35,60.41,101.12,5.71-14.18,24.08-21.8,41.29-17l5.44,1.51c15.81,4.38,25.15,17.71,22.68,31L754.18,902.27c-7.07,12-23.76,18.11-39.56,13.73l-5.44-1.51c-17.41-4.82-27.12-20.54-21.64-35l.86-2.27-3.94-1.1C676.09,874,670,874.67,662.86,876.15Z"/><path class="cls-2" d="M596.2,569.64l-58.8,10.19c-45.79,7.93-90.59-17.53-99.85-56.76L428,482.75,449.46,479,459,519.35c6.87,29.1,40.1,48,74.08,42.11l58.8-10.19"/><path class="cls-2" d="M486.36,363.71c-34,5.89-56,34.35-49.15,63.46l9.52,40.32-21.44,3.71-9.52-40.32c-9.26-39.23,20.46-77.6,66.26-85.53l47.07-8.15,4.33,18.36Z"/><path class="cls-2" d="M509.26,400.1c-16.6,2.88-27.37,16.78-24,31L492,459.65l-21.44,3.71-6.74-28.55c-5.75-24.34,12.69-48.15,41.11-53.07L538.26,376l4.34,18.36Z"/><path class="cls-2" d="M591,530.19l-49,8.49c-28.42,4.92-56.21-10.88-62-35.22l-6.74-28.55,21.44-3.71,6.74,28.55c3.36,14.22,19.59,23.44,36.19,20.57l49-8.49"/><path class="cls-2" d="M573.68,496.27c-27.68,4.79-54.75-10.59-60.35-34.3s12.37-46.9,40-51.7m4.34,18.36c-15.86,2.75-26.15,16-22.95,29.62s18.72,22.4,34.58,19.66"/><path class="cls-2" d="M943.4,169.23H932.85a8,8,0,0,1-8-8V47.63a8,8,0,0,1,8-8h49.81a6.5,6.5,0,0,0,0-13H932.85a21,21,0,0,0-21,21V161.26a21,21,0,0,0,21,21H943.4a6.5,6.5,0,1,0,0-13Zm0,0"/><path class="cls-2" d="M1108.22,26.65h-10.55a6.5,6.5,0,1,0,0,13h10.55a8,8,0,0,1,8,8V161.26a8,8,0,0,1-8,8h-46.54a6.5,6.5,0,1,0,0,13h46.54a21,21,0,0,0,21-21V47.63a21,21,0,0,0-21-21Zm0,0"/><path class="cls-2" d="M939.87,22.23a6.47,6.47,0,0,0,6.5-6.49V14.35A1.35,1.35,0,0,1,947.73,13H958.2a1.36,1.36,0,0,1,1.37,1.35v1.39a6.5,6.5,0,0,0,13,0V14.35A14.38,14.38,0,0,0,958.22,0H947.73a14.38,14.38,0,0,0-14.37,14.35v1.39a6.52,6.52,0,0,0,6.51,6.49Zm0,0"/><path class="cls-2" d="M1092.89,104.44a62.32,62.32,0,1,0-62.33,62.34,62.39,62.39,0,0,0,62.33-62.34Zm-62.33,49.33a49.32,49.32,0,1,1,49.33-49.33,49.38,49.38,0,0,1-49.33,49.33Zm0,0"/><path class="cls-2" d="M1030.56,63.26a41.18,41.18,0,1,0,41.2,41.18,41.24,41.24,0,0,0-41.2-41.18Zm0,69.38a28.19,28.19,0,1,1,28.2-28.2,28.21,28.21,0,0,1-28.2,28.2Zm0,0"/><path class="cls-2" d="M724.93,287.54c22.38-12.41,44.32-4.37,57.32,7.25s23.43,32.46,13.68,56.15a11.81,11.81,0,0,0,21.85,9c11.9-28.92,4.13-61.41-19.8-82.76s-57.06-25.38-84.47-10.31a11.82,11.82,0,1,0,11.41,20.69Z"/><path class="cls-2" d="M826.06,245.73c-33-29.49-78.81-35.1-116.51-14.29a11.82,11.82,0,1,0,11.4,20.7c35-19.27,69.12-6.86,89.37,11.22s36.46,50.56,21.24,87.53a11.81,11.81,0,0,0,21.85,9C869.82,320,859.08,275.22,826.06,245.73Z"/><path class="cls-2" d="M856.23,211.94c-45.26-40.41-107.87-48.09-159.6-19.62A11.81,11.81,0,0,0,708,213c52-28.63,102.48-10.21,132.46,16.56s54,74.9,31.42,129.75a11.81,11.81,0,0,0,21.85,9C916.23,313.73,901.49,252.35,856.23,211.94Z"/></g></svg>