<svg xmlns="http://www.w3.org/2000/svg" viewBox="0 0 1317.83 998"><defs><style>.cls-1{fill:#fff;}</style></defs><title>Sending</title><g id="レイヤー_5" data-name="レイヤー 5"><g id="y8Ikmf.tif"><path class="cls-1" d="M837.09,607.71h4.29c39.28-.67,71.05-14.48,94.52-40.89,51.62-58.18,43-157.93,42.1-167.45-3.35-71.46-37.14-105.64-65-121.6-20.78-11.93-45-18.37-72.13-18.9h-2.28c-14.88,0-44.11,2.41-72.13,18.37S704,327.38,700.62,399.37c-.94,9.52-9.52,109.26,42.1,167.45C766,593.23,797.81,607,837.09,607.71Zm-100.68-205c0-.4.13-.8.13-1.07C741,305.52,809.21,295.2,838.43,295.2H840c36.2.8,97.73,15.55,101.89,106.45a2.61,2.61,0,0,0,.13,1.07c.13.94,9.52,92.1-33.11,140.1-16.89,19-39.42,28.42-69,28.69h-1.34c-29.49-.27-52.15-9.65-68.91-28.69C727.16,495.09,736.28,403.53,736.41,402.72Z"/><path class="cls-1" d="M1114.74,773.14v-.4c0-1.07-.13-2.15-.13-3.35-.8-26.54-2.55-88.62-60.73-108.46-.4-.13-.94-.27-1.34-.4q-7.23-1.84-14.24-4a59.05,59.05,0,0,1-7-2.12c-1.41-.51-2.93-1.05-4.45-1.67-2-.7-3.94-1.41-5.88-2.14a4.59,4.59,0,0,1-1.64-.61,396.77,396.77,0,0,1-78.08-40.1,18.09,18.09,0,0,0-20.78,29.63c2.28,1.61,55.64,38.74,122.4,55.91,31.24,11.13,34.72,44.51,35.66,75.08a26.88,26.88,0,0,0,.13,3.35c.13,12.07-.67,30.7-2.82,41.43-21.72,12.33-106.85,55-236.36,55-129,0-214.64-42.77-236.49-55.1-2.15-10.73-3.08-29.36-2.82-41.43,0-1.07.13-2.15.13-3.35.94-30.57,4.42-63.95,35.66-75.08,66.76-17.16,120.12-54.43,122.4-55.91a18.09,18.09,0,1,0-20.78-29.63c-.54.4-50.54,35.26-111.27,50.68-.54.13-.94.27-1.34.4-58.18,20-59.93,82-60.73,108.46a26.88,26.88,0,0,1-.13,3.35v.4c-.13,7-.27,42.77,6.84,60.73a17.2,17.2,0,0,0,7,8.45c4,2.68,100.42,64.08,261.7,64.08s257.67-61.54,261.7-64.08a17.94,17.94,0,0,0,7-8.45C1115,815.91,1114.88,780.12,1114.74,773.14Z"/></g></g><g id="レイヤー_6" data-name="レイヤー 6"><path class="cls-1" d="M1217.46,575.67l-15.74,2.73c-12.26,2.13-24.23-4.59-26.68-15l-2.52-10.67,5.74-1,2.52,10.67c1.82,7.7,10.7,12.68,19.79,11.1l15.74-2.73"/><path class="cls-1" d="M1188.2,521.23c-9.09,1.58-15,9.13-13.19,16.83l2.52,10.67-5.74,1-2.52-10.67c-2.45-10.38,5.52-20.55,17.78-22.68l12.6-2.19,1.15,4.86Z"/><path class="cls-1" d="M1194.3,530.85c-4.44.77-7.33,4.46-6.44,8.22l1.79,7.55-5.74,1-1.79-7.55c-1.52-6.44,3.42-12.75,11-14.07l8.92-1.55,1.15,4.86Z"/><path class="cls-1" d="M1216.08,565.23,1203,567.51c-7.61,1.32-15-2.85-16.56-9.29l-1.79-7.55,5.74-1,1.79,7.55c.89,3.76,5.23,6.19,9.67,5.42l13.11-2.28"/><path class="cls-1" d="M1211.48,556.27c-7.41,1.29-14.64-2.77-16.13-9s3.34-12.42,10.74-13.71m1.15,4.86c-4.24.74-7,4.26-6.16,7.86s5,5.92,9.24,5.18"/><path class="cls-1" d="M502.15,730.46l.57-.14.48-.12.55-.19.48-.18.5-.23.48-.23.46-.27c.16-.09.32-.18.47-.29s.32-.23.48-.35l.4-.3c.24-.2.47-.41.69-.62l.12-.11.12-.13c.21-.22.42-.44.62-.68s.21-.28.32-.43.23-.29.33-.45.21-.33.31-.5.17-.28.25-.43.17-.35.25-.52.15-.31.22-.46.13-.34.19-.52.13-.34.18-.51.09-.35.14-.53.09-.35.13-.52.07-.42.1-.63,0-.29.06-.44a11.07,11.07,0,0,0,.06-1.11V482.26A11.14,11.14,0,0,0,500,471.13h-350l-.63,0-.5.05-.57.09-.52.11-.53.14-.51.16-.52.19-.48.2-.52.25-.43.23-.51.31-.41.27-.46.35-.41.34-.39.36-.43.44-.21.21-.11.14c-.14.16-.27.33-.4.5l-.28.38c-.12.17-.22.34-.33.51s-.18.28-.26.42-.17.34-.26.51-.16.31-.23.47-.14.34-.2.51-.13.33-.18.5-.1.34-.15.52-.1.35-.14.53-.06.34-.09.51-.07.38-.09.58,0,.32,0,.49,0,.41,0,.62,0,.12,0,.18V550.3a11.37,11.37,0,0,0,10.93,11.5,11.1,11.1,0,0,0,11.28-11.1V507a0,0,0,0,1,.06,0L260,594.26a0,0,0,0,1,0,.05,11.17,11.17,0,0,0-1.44,1.2l-97.19,97.19a0,0,0,0,1-.06,0V620.19a11.37,11.37,0,0,0-10.93-11.5,11.1,11.1,0,0,0-11.28,11.1v13.53a0,0,0,0,1,0,0H82.15a11.37,11.37,0,0,0-11.5,10.93,11.1,11.1,0,0,0,11.1,11.28h57.34a0,0,0,0,1,0,0v63.94a11.14,11.14,0,0,0,11.14,11.14H500c.37,0,.73,0,1.1-.05l.5-.07Zm-13.27-37.7-97.25-97.25-.19-.17,73.11-62a11.1,11.1,0,1,0-14.37-16.93l-124.9,106a0,0,0,0,1,0,0l-145.66-129a0,0,0,0,1,0-.06H488.85a0,0,0,0,1,0,0v199.4Zm-214.6-81.54a11.06,11.06,0,0,0,1.92-2.58,0,0,0,0,1,0,0l41.5,36.74a11.11,11.11,0,0,0,14.55.15l42.3-35.88a0,0,0,0,1,0,0,11.14,11.14,0,0,0,1.3,1.57l97.19,97.19a0,0,0,0,1,0,.06h-296a0,0,0,0,1,0-.06Z"/><path class="cls-1" d="M256.3,579.23H68.77c-6.13,0-11.1,12.47,0,22.21H256.3a11.1,11.1,0,0,0,0-22.21Z"/><path class="cls-1" d="M80.36,536.39h84.2a11.1,11.1,0,1,0,0-22.21H80.36a11.1,11.1,0,1,0,0,22.21Z"/><path class="cls-1" d="M163.18,669.14H81.75a11.1,11.1,0,1,0,0,22.21h81.43a11.1,11.1,0,1,0,0-22.21Z"/><path class="cls-1" d="M1250.33,656.36l-36.52-154.65c-.82-3.46-4.77-5.71-8.82-5l-111.81,19.37c-4,.7-6.67,4.09-5.85,7.56l36.52,154.65c.82,3.47,4.78,5.72,8.82,5l111.81-19.37C1248.53,663.22,1251.15,659.83,1250.33,656.36Zm-30.77-.94a5.07,5.07,0,0,1-3.37.55l-78.55,12.89L1104,526.33l96.84-16.06L1234.5,652.8l-14.8,2.56Z"/><line class="cls-1" x1="455.93" y1="989.45" x2="553.6" y2="972.53"/></g></svg>